# xmcd
#
# Track frame offsets:
# 150
# 9354
# 22022
# 30879
# 39126
# 49374
# 58940
# 68175
# 78981
# 93628
# 102742
# 114377
# 127935
# 138140
# 147415
# 158752
# 169240
# 180459
# 191725
# 202575
#
# Disc length: 2866 seconds
#
#
# Revision: 0
# Processed by: cddbd v1.4PL0 Copyright (c) Steve Scherf et al.
# Submitted via: FreeRIP 2.00 
#
DISCID=080b3014
DTITLE=George Jones - The George Jones Story
DYEAR=1968
DGENRE=Country
TTITLE0=Am I That Easy To Forget
TTITLE1=I Threw Away The Rose
TTITLE2=Back Into My Baby's Arms Again
TTITLE3=Run 'Em Off
TTITLE4=The Man That You Once Knew
TTITLE5=Seasons Of My Heart
TTITLE6=Lonely Street
TTITLE7=Ruby Don't Take Your Love To Town
TTITLE8=Soldier's Last Letter
TTITLE9=Ain't Nothin' Shakin' (But The Leaves)
TTITLE10=Green, Green Grass Of Home
TTITLE11=That Heart Belongs To Me
TTITLE12=I'll Sail My Ship Alone
TTITLE13=Please Don't Let That Woman Get Me
TTITLE14=Worst Of Luck
TTITLE15=Color Of The Blues
TTITLE16=Even The Bad Times Are Good
TTITLE17=The Shoe Goes On The Other Foot Tonight
TTITLE18=Swinging Doors
TTITLE19=Your Steppin' Stone
EXTD=Musicor M2S 3159
EXTT0=
EXTT1=
EXTT2=
EXTT3=
EXTT4=
EXTT5=
EXTT6=
EXTT7=
EXTT8=
EXTT9=
EXTT10=
EXTT11=
EXTT12=
EXTT13=
EXTT14=
EXTT15=
EXTT16=
EXTT17=
EXTT18=
EXTT19=
PLAYORDER=
